<?xml version='1.0' encoding='utf-8'?>
<svg xmlns="http://www.w3.org/2000/svg" width="91.44mm" height="91.44mm" clip-rule="evenodd" fill-rule="evenodd" image-rendering="optimizeQuality" shape-rendering="geometricPrecision" text-rendering="geometricPrecision" version="1.1" viewBox="0 0 9144 9144"> <defs> <style type="text/css">.fil0 {fill:#F0F0F0} .fil1 {fill:#011627;fill-rule:nonzero}</style> </defs> <polygon class="fil0" points="0 0 9144 0 9144 9144 0 9144"/> <path class="fil1" d="m2543 6174h3412v-407-2170h-2854-558v2577zm1618-2055c0-49 39-88 88-88s88 39 88 88v679h680c49 0 88 39 88 88s-39 88-88 88h-680v679c0 49-39 88-88 88s-88-39-88-88v-679h-679c-49 0-88-39-88-88s39-88 88-88h679v-679zm-1060-1326h3588c49 0 88 39 88 88v2886c0 49-39 88-88 88h-558v407c0 49-39 88-88 88h-3588c-49 0-88-39-88-88v-2753c0-49 39-88 88-88h558v-540c0-49 39-88 88-88zm3500 176h-3412v452h2854c49 0 88 39 88 88v2170h470v-2710z"/> </svg>